<svg xmlns="http://www.w3.org/2000/svg" viewBox="0 0 1200 675" role="img" aria-label="CourtVision icon cover">
  <rect width="1200" height="675" fill="#f8fafc"/>
  <circle cx="600" cy="338" r="168" fill="#f5f3ff"/>
  <g fill="none" stroke="#8b5cf6" stroke-width="10" stroke-linecap="round" stroke-linejoin="round">
    <path d="M520 304c0-34 24-56 56-56 15 0 28 6 37 16 8-5 17-8 27-8 28 0 48 19 48 47 0 6-1 11-3 16 16 9 26 24 26 42 0 29-22 49-53 49H548c-34 0-58-22-58-54 0-22 12-39 30-47z"/>
    <circle cx="556" cy="304" r="10"/>
    <circle cx="640" cy="290" r="10"/>
    <circle cx="688" cy="340" r="10"/>
    <line x1="566" y1="311" x2="632" y2="296"/>
    <line x1="648" y1="298" x2="682" y2="332"/>
  </g>
</svg>
